Coordinates
version=1
nRows=38
nColumns=12
inDegrees=yes

Units are S.I. units (second, meters, Newtons, ...)
Angles are in degrees

endheader
time	SC_y	SC_z	SC_x	AC_y	AC_z	AC_x	GH_y	GH_z	GH_yy	EL_x	PS_y
       0.0              -25.32          15.97          9.643          57.26         -15.94          13.35         -128.4          -17.5          42.55          50.91          100.4
    0.0168              -25.32          15.98          9.651          57.26         -15.94          13.35         -128.4          -17.5          42.54          50.91          100.4
   0.03359              -25.33          15.98           9.66          57.26         -15.93          13.35         -128.3         -17.49          42.53           50.9          100.4
   0.05039              -25.33          15.98          9.669          57.26         -15.93          13.35         -128.3         -17.49          42.53           50.9          100.4
   0.06718              -25.34          15.99          9.679          57.26         -15.93          13.35         -128.3         -17.48          42.52           50.9          100.4
   0.08398              -25.35          15.99           9.69          57.26         -15.93          13.35         -128.2         -17.48          42.51          50.89          100.4
    0.1008              -25.35          15.99          9.701          57.26         -15.93          13.35         -128.2         -17.47           42.5          50.89          100.4
    0.1176              -25.36           16.0          9.714          57.26         -15.92          13.35         -128.1         -17.47          42.49          50.88          100.3
    0.1344              -25.37           16.0          9.727          57.25         -15.92          13.35         -128.1         -17.46          42.48          50.88          100.3
    0.1512              -25.37          16.01          9.741          57.25         -15.92          13.35         -128.0         -17.45          42.47          50.87          100.3
     0.168              -25.38          16.01          9.756          57.25         -15.91          13.36         -128.0         -17.45          42.46          50.87          100.3
    0.1848              -25.39          16.02          9.772          57.25         -15.91          13.36         -127.9         -17.44          42.44          50.86          100.3
    0.2015               -25.4          16.02           9.79          57.25          -15.9          13.36         -127.8         -17.43          42.43          50.85          100.3
    0.2183              -25.41          16.03          9.809          57.25          -15.9          13.36         -127.7         -17.42          42.41          50.85          100.3
    0.2351              -25.42          16.03          9.829          57.25          -15.9          13.36         -127.7         -17.41           42.4          50.84          100.2
    0.2519              -25.44          16.04          9.851          57.25         -15.89          13.36         -127.6          -17.4          42.38          50.83          100.2
    0.2687              -25.45          16.05          9.876          57.25         -15.88          13.36         -127.5         -17.39          42.36          50.82          100.2
    0.2855              -25.46          16.06          9.902          57.25         -15.88          13.37         -127.4         -17.38          42.34          50.81          100.2
    0.3023              -25.48          16.07          9.931          57.24         -15.87          13.37         -127.3         -17.36          42.32           50.8          100.2
    0.3191               -25.5          16.08          9.962          57.24         -15.86          13.37         -127.1         -17.35          42.29          50.78          100.1
    0.3359              -25.52          16.09          9.997          57.24         -15.86          13.37         -127.0         -17.33          42.26          50.77          100.1
    0.3527              -25.54           16.1          10.03          57.24         -15.85          13.38         -126.8         -17.31          42.23          50.75          100.1
    0.3695              -25.56          16.11          10.08          57.24         -15.84          13.38         -126.7         -17.29           42.2          50.74          100.0
    0.3863              -25.59          16.13          10.12          57.23         -15.83          13.38         -126.5         -17.27          42.16          50.72          99.99
    0.4031              -25.62          16.14          10.17          57.23         -15.81          13.39         -126.3         -17.24          42.12           50.7          99.94
    0.4199              -25.65          16.16          10.23          57.23          -15.8          13.39         -126.1         -17.22          42.08          50.68          99.89
    0.4367              -25.68          16.18           10.3          57.23         -15.79          13.39         -125.8         -17.18          42.02          50.65          99.84
    0.4535              -25.72          16.21          10.37          57.22         -15.77           13.4         -125.5         -17.15          41.97          50.62          99.77
    0.4703              -25.77          16.23          10.45          57.22         -15.75           13.4         -125.2         -17.11           41.9          50.59           99.7
    0.4871              -25.82          16.26          10.55          57.21         -15.73          13.41         -124.8         -17.06          41.83          50.55          99.62
    0.5039              -25.88           16.3          10.65          57.21          -15.7          13.42         -124.4         -17.01          41.74          50.51          99.53
    0.5207              -25.95          16.34          10.77           57.2         -15.67          13.43         -123.9         -16.95          41.64          50.46          99.43
    0.5375              -26.03          16.38          10.92          57.19         -15.64          13.44         -123.3         -16.88          41.53           50.4           99.3
    0.5543              -26.12          16.43          11.08          57.18          -15.6          13.45         -122.7         -16.81           41.4          50.34          99.16
    0.5711              -26.23           16.5          11.27          57.17         -15.56          13.46         -121.9         -16.71          41.25          50.26           99.0
    0.5878              -26.35          16.57           11.5          57.16          -15.5          13.48         -121.0          -16.6          41.07          50.17           98.8
    0.6046               -26.5          16.65          11.77          57.15         -15.44           13.5         -119.9         -16.47          40.85          50.06          98.57
    0.6214              -26.68          16.76          12.09          57.13         -15.37          13.52         -118.7         -16.32          40.59          49.93          98.29
